<svg width="100" height="100" viewBox="0 0 100 100" xmlns="http://www.w3.org/2000/svg">
  <defs>
    <linearGradient id="scorpionGradient" x1="0%" y1="0%" x2="100%" y2="100%">
      <stop offset="0%" style="stop-color:#ff4444;stop-opacity:1" />
      <stop offset="50%" style="stop-color:#ffaa00;stop-opacity:1" />
      <stop offset="100%" style="stop-color:#00ffff;stop-opacity:1" />
    </linearGradient>
    <filter id="glow">
      <feGaussianBlur stdDeviation="3" result="coloredBlur"/>
      <feMerge> 
        <feMergeNode in="coloredBlur"/>
        <feMergeNode in="SourceGraphic"/>
      </feMerge>
    </filter>
  </defs>
  
  <!-- Scorpion Body -->
  <ellipse cx="50" cy="45" rx="12" ry="18" fill="url(#scorpionGradient)" filter="url(#glow)"/>
  
  <!-- Head -->
  <circle cx="50" cy="25" r="8" fill="url(#scorpionGradient)" filter="url(#glow)"/>
  
  <!-- Eyes -->
  <circle cx="47" cy="23" r="2" fill="#00ffff"/>
  <circle cx="53" cy="23" r="2" fill="#00ffff"/>
  
  <!-- Pincers -->
  <path d="M35 30 Q30 25 25 30 Q28 35 35 32" fill="url(#scorpionGradient)" filter="url(#glow)"/>
  <path d="M65 30 Q70 25 75 30 Q72 35 65 32" fill="url(#scorpionGradient)" filter="url(#glow)"/>
  
  <!-- Legs -->
  <path d="M38 40 L28 45" stroke="url(#scorpionGradient)" stroke-width="2" filter="url(#glow)"/>
  <path d="M38 50 L28 55" stroke="url(#scorpionGradient)" stroke-width="2" filter="url(#glow)"/>
  <path d="M62 40 L72 45" stroke="url(#scorpionGradient)" stroke-width="2" filter="url(#glow)"/>
  <path d="M62 50 L72 55" stroke="url(#scorpionGradient)" stroke-width="2" filter="url(#glow)"/>
  
  <!-- Tail segments -->
  <circle cx="50" cy="65" r="4" fill="url(#scorpionGradient)" filter="url(#glow)"/>
  <circle cx="52" cy="75" r="3.5" fill="url(#scorpionGradient)" filter="url(#glow)"/>
  <circle cx="55" cy="84" r="3" fill="url(#scorpionGradient)" filter="url(#glow)"/>
  
  <!-- Stinger -->
  <path d="M55 84 Q60 88 62 95" stroke="url(#scorpionGradient)" stroke-width="3" fill="none" filter="url(#glow)"/>
  <polygon points="60,92 64,95 60,98" fill="#ff4444" filter="url(#glow)"/>
  
  <!-- Cyberpunk accent lines -->
  <path d="M20 20 L80 80" stroke="#00ffff" stroke-width="0.5" opacity="0.3"/>
  <path d="M80 20 L20 80" stroke="#00ffff" stroke-width="0.5" opacity="0.3"/>
</svg>
